<svg xmlns="http://www.w3.org/2000/svg" xmlns:xlink="http://www.w3.org/1999/xlink"><symbol class="ldi-47ibm8" preserveAspectRatio="xMidYMid" style="width:525px;webkit-user-select:none;webkit-transform-origin:262.5px 262.5px;webkit-perspective-origin:262.5px 262.5px;webkit-logical-width:525px;webkit-logical-height:525px;user-select:none;transform-origin:262.5px 262.5px;r:0;perspective-origin:262.5px 262.5px;overflow-y:hidden;overflow-x:hidden;inline-size:525px;height:525px;d:none;block-size:525px;background:0 0/auto padding-box border-box" pointer-events="all" overflow="hidden" display="block" id="sprite-ok" viewBox="0 0 100 100"><title>ok</title><svg version="1.1" id="圖層_1" xmlns="http://www.w3.org/2000/svg" x="0" y="0" viewBox="0 0 100 100" xml:space="preserve" style="x:0;webkit-user-select:none;webkit-transform-origin:50px 50px;webkit-perspective-origin:0 0;user-select:none;transform-origin:50px 50px;r:0;perspective-origin:0 0;overflow-y:hidden;overflow-x:hidden" pointer-events="all" overflow="hidden" display="block"><g style="x:0;webkit-user-select:none;webkit-transform-origin:50px 50px;webkit-perspective-origin:0 0;user-select:none;transform-origin:50px 50px;r:0;perspective-origin:0 0"><g style="x:0;webkit-user-select:none;webkit-transform-origin:50px 50px;webkit-transform:matrix(.7,0,0,.7,0,0);webkit-perspective-origin:0 0;user-select:none;transform-origin:50px 50px;r:0;perspective-origin:0 0"><g style="x:0;webkit-user-select:none;webkit-transform-origin:50px 50px;webkit-perspective-origin:0 0;user-select:none;transform-origin:50px 50px;r:0;perspective-origin:0 0"><g style="webkit-user-select:none;webkit-perspective-origin:0 0;user-select:none;perspective-origin:0 0" transform="scale(.7)"><style/><g style="y:0;x:0;webkit-user-select:none;webkit-transform-origin:50px 50px;webkit-perspective-origin:0 0;webkit-animation-duration:2.2s;webkit-animation-delay:.169231s;webkit-animation:2.2s ease .169231s 1 normal none running none;user-select:none;transform-origin:50px 50px;r:0;perspective-origin:0 0;d:none"><circle cx="50" cy="50" r="40" stroke="#3c3" style="webkit-user-select:none;webkit-perspective-origin:0 0;user-select:none;r:40px;perspective-origin:0 0;cy:50px;cx:50px" stroke-width="8" stroke-miterlimit="10" fill="none"/></g><g style="x:0;webkit-user-select:none;webkit-transform-origin:50px 50px;webkit-perspective-origin:0 0;user-select:none;transform-origin:50px 50px;r:0;perspective-origin:0 0"><g style="webkit-user-select:none;webkit-perspective-origin:0 0;user-select:none;perspective-origin:0 0"><g style="y:0;x:0;webkit-user-select:none;webkit-transform-origin:50px 50px;webkit-perspective-origin:0 0;webkit-animation-duration:2.2s;webkit-animation-delay:.338462s;webkit-animation:2.2s ease .338462s 1 normal none running none;user-select:none;transform-origin:50px 50px;r:0;perspective-origin:0 0;d:none" class="ld"><path fill="#3c3" style="webkit-user-select:none;webkit-perspective-origin:0 0;user-select:none;r:0;perspective-origin:0 0" d="M43.7 69.4L25 47.7l3.9-3.9 14.8 12.6 28.6-25.8 2.7 2.7z"/></g></g></g></g></g></g></g><style>@keyframes ldt-bounce-in{0%{-webkit-transform:scale(0);transform:scale(0)}5%{-webkit-transform:scale(.0846);transform:scale(.0846)}6%{-webkit-transform:scale(.191);transform:scale(.191)}7%{-webkit-transform:scale(.3255);transform:scale(.3255)}8%{-webkit-transform:scale(.4804);transform:scale(.4804)}9%{-webkit-transform:scale(.646);transform:scale(.646)}10%{-webkit-transform:scale(.8116);transform:scale(.8116)}11%{-webkit-transform:scale(.9665);transform:scale(.9665)}12%{-webkit-transform:scale(1.1);transform:scale(1.1)}13%{-webkit-transform:scale(1.2069);transform:scale(1.2069)}14%{-webkit-transform:scale(1.2796);transform:scale(1.2796)}19%{-webkit-transform:scale(1.1558);transform:scale(1.1558)}20%{-webkit-transform:scale(1.07);transform:scale(1.07)}21%{-webkit-transform:scale(.9823);transform:scale(.9823)}22%{-webkit-transform:scale(.901);transform:scale(.901)}23%{-webkit-transform:scale(.8328);transform:scale(.8328)}25%{-webkit-transform:scale(.7551);transform:scale(.7551)}29%{-webkit-transform:scale(.8516);transform:scale(.8516)}31%{-webkit-transform:scale(.973);transform:scale(.973)}33%{-webkit-transform:scale(1.0857);transform:scale(1.0857)}35%{-webkit-transform:scale(1.1538);transform:scale(1.1538)}40%{-webkit-transform:scale(1.0771);transform:scale(1.0771)}42%{-webkit-transform:scale(.9954);transform:scale(.9954)}45%{-webkit-transform:scale(.9057);transform:scale(.9057)}52%{-webkit-transform:scale(.9908);transform:scale(.9908)}56%{-webkit-transform:scale(1.0623);transform:scale(1.0623)}64%{-webkit-transform:scale(.9845);transform:scale(.9845)}}@-webkit-keyframes ldt-bounce-in{0%{-webkit-transform:scale(0);transform:scale(0)}5%{-webkit-transform:scale(.0846);transform:scale(.0846)}6%{-webkit-transform:scale(.191);transform:scale(.191)}7%{-webkit-transform:scale(.3255);transform:scale(.3255)}8%{-webkit-transform:scale(.4804);transform:scale(.4804)}9%{-webkit-transform:scale(.646);transform:scale(.646)}10%{-webkit-transform:scale(.8116);transform:scale(.8116)}11%{-webkit-transform:scale(.9665);transform:scale(.9665)}12%{-webkit-transform:scale(1.1);transform:scale(1.1)}13%{-webkit-transform:scale(1.2069);transform:scale(1.2069)}14%{-webkit-transform:scale(1.2796);transform:scale(1.2796)}19%{-webkit-transform:scale(1.1558);transform:scale(1.1558)}20%{-webkit-transform:scale(1.07);transform:scale(1.07)}21%{-webkit-transform:scale(.9823);transform:scale(.9823)}22%{-webkit-transform:scale(.901);transform:scale(.901)}23%{-webkit-transform:scale(.8328);transform:scale(.8328)}25%{-webkit-transform:scale(.7551);transform:scale(.7551)}29%{-webkit-transform:scale(.8516);transform:scale(.8516)}31%{-webkit-transform:scale(.973);transform:scale(.973)}33%{-webkit-transform:scale(1.0857);transform:scale(1.0857)}35%{-webkit-transform:scale(1.1538);transform:scale(1.1538)}40%{-webkit-transform:scale(1.0771);transform:scale(1.0771)}42%{-webkit-transform:scale(.9954);transform:scale(.9954)}45%{-webkit-transform:scale(.9057);transform:scale(.9057)}52%{-webkit-transform:scale(.9908);transform:scale(.9908)}56%{-webkit-transform:scale(1.0623);transform:scale(1.0623)}64%{-webkit-transform:scale(.9845);transform:scale(.9845)}}</style></svg></symbol><symbol id="sprite-pass-hidden" viewBox="0 0 1024 1024"><title/><path d="M105.927 153.769l106.184 81.479c86.849-54.654 189.67-86.285 299.891-86.285 212.181 0 396.935 117.218 493.127 290.256 25.159 45.258 25.159 100.312 0 145.57-33.66 60.558-78.171 114.278-130.905 158.526l89.059 68.34c16.181 12.415 19.228 35.59 6.817 51.765-12.415 16.175-35.59 19.228-51.765 6.817L812.038 788.67l-.074.044-63.121-48.438a.942.942 0 01.078-.044l-78.692-60.38c-.02.015-.039.035-.059.054l-59.716-45.824c.02-.015.039-.035.063-.05L368.721 448.491c-.012.024-.022.05-.033.074l-59.725-45.828.038-.072-98.874-75.871c-.022.017-.044.033-.065.051l-60.219-46.209.063-.053-88.928-68.239c-16.176-12.413-19.227-35.589-6.814-51.764s35.589-19.228 51.764-6.814zm169.312 129.92l78.752 60.43c41.278-38.893 96.902-62.729 158.095-62.729 127.361 0 230.602 103.253 230.602 230.616 0 39.543-9.953 76.762-27.487 109.285l98.806 75.817c51.441-40.311 94.622-90.693 126.589-148.194a75.966 75.966 0 000-73.819C856.898 324.54 696.304 222.801 512.004 222.801c-85.859 0-166.572 22.079-236.763 60.887zm380.235 291.774c8.6-19.4 13.375-40.872 13.375-63.457 0-86.588-70.186-156.777-156.763-156.777-37.258 0-71.48 13-98.383 34.713l241.771 185.521zM18.87 439.22a565.37 565.37 0 0177.026-106.904l58.824 45.138a491.782 491.782 0 00-71.314 97.641 75.977 75.977 0 000 73.819c83.697 150.556 244.291 252.295 428.596 252.295 56.058 0 109.921-9.412 160.097-26.749l68.296 52.406c-69.812 30.973-147.091 48.182-228.392 48.182-212.184 0-396.938-117.221-493.133-290.259-25.159-45.258-25.159-100.312 0-145.57zm262.616 72.785c0-11.977.913-23.741 2.673-35.226l72.479 55.615c9.994 76.955 75.785 136.39 155.447 136.39 6.965 0 13.827-.453 20.551-1.334l72.494 55.63c-28.458 12.563-59.937 19.543-93.047 19.543-127.356 0-230.599-103.256-230.599-230.617z"/></symbol><symbol id="sprite-pass-visible" viewBox="0 0 1024 1024"><title/><path d="M83.406 475.096C167.103 324.544 327.697 222.811 512 222.811s344.899 101.734 428.594 252.285a75.96 75.96 0 010 73.816C856.899 699.457 696.302 801.192 512 801.192S167.103 699.457 83.406 548.912a75.971 75.971 0 010-73.816zM512 148.974c-212.181 0-396.933 117.213-493.129 290.242-25.161 45.257-25.161 100.312 0 145.569C115.066 757.817 299.819 875.027 512 875.027s396.935-117.212 493.129-290.242c25.162-45.257 25.162-100.312 0-145.569C908.936 266.186 724.181 148.974 512 148.974zm-156.881 363.03c0-86.59 70.183-156.773 156.758-156.773 86.57 0 156.753 70.184 156.753 156.773 0 86.585-70.183 156.768-156.753 156.768-86.575 0-156.758-70.183-156.758-156.768zm156.758-230.609c-127.355 0-230.592 103.249-230.592 230.608 0 127.355 103.237 230.604 230.592 230.604 127.352 0 230.589-103.246 230.589-230.604S639.229 281.395 511.877 281.395z"/></symbol><symbol fill="none" id="sprite-star-rounded" viewBox="0 0 8 8"><title>star-rounded</title><path d="M3.103.817a1 1 0 011.794 0l.34.689a1 1 0 00.753.547l.76.11a1 1 0 01.554 1.706l-.55.537a1 1 0 00-.287.885l.13.757a1 1 0 01-1.452 1.054l-.68-.357a1 1 0 00-.93 0l-.68.357a1 1 0 01-1.451-1.054l.13-.757a1 1 0 00-.288-.885l-.55-.537a1 1 0 01.554-1.705l.76-.11a1 1 0 00.753-.548l.34-.689z" fill="#070234"/></symbol><symbol fill="none" id="sprite-star-spike" viewBox="0 0 10 9"><title>star-spike</title><path d="M4.552.908a.5.5 0 01.896 0l.905 1.834a.5.5 0 00.377.273l2.023.294a.5.5 0 01.277.853L7.566 5.59a.5.5 0 00-.144.443l.346 2.015a.5.5 0 01-.726.527l-1.81-.952a.5.5 0 00-.465 0l-1.81.952a.5.5 0 01-.725-.527l.346-2.015a.5.5 0 00-.144-.443L.97 4.162a.5.5 0 01.277-.853l2.023-.294a.5.5 0 00.377-.273L4.552.908z" fill="#070234"/></symbol></svg>