<!-- Generated by IcoMoon.io -->
<svg version="1.1" xmlns="http://www.w3.org/2000/svg" width="1024" height="1024" viewBox="0 0 1024 1024">
<title></title>
<g id="icomoon-ignore">
</g>
<path d="M83.406 475.096c83.697-150.552 244.291-252.285 428.594-252.285s344.899 101.734 428.594 252.285c12.759 22.943 12.759 50.868 0 73.816-83.695 150.545-244.292 252.28-428.594 252.28s-344.897-101.735-428.594-252.28c-12.757-22.948-12.757-50.873 0-73.816zM512 148.974c-212.181 0-396.933 117.213-493.129 290.242-25.161 45.257-25.161 100.312 0 145.569 96.195 173.032 280.948 290.242 493.129 290.242s396.935-117.212 493.129-290.242c25.162-45.257 25.162-100.312 0-145.569-96.193-173.030-280.948-290.242-493.129-290.242zM355.119 512.004c0-86.59 70.183-156.773 156.758-156.773 86.57 0 156.753 70.184 156.753 156.773 0 86.585-70.183 156.768-156.753 156.768-86.575 0-156.758-70.183-156.758-156.768zM511.877 281.395c-127.355 0-230.592 103.249-230.592 230.608 0 127.355 103.237 230.604 230.592 230.604 127.352 0 230.589-103.246 230.589-230.604s-103.237-230.608-230.589-230.608z"></path>
</svg>
