<!-- Generated by IcoMoon.io -->
<svg version="1.1" xmlns="http://www.w3.org/2000/svg" width="1024" height="1024" viewBox="0 0 1024 1024">
<title></title>
<g id="icomoon-ignore">
</g>
<path d="M105.927 153.769l106.184 81.479c86.849-54.654 189.67-86.285 299.891-86.285 212.181 0 396.935 117.218 493.127 290.256 25.159 45.258 25.159 100.312 0 145.57-33.66 60.558-78.171 114.278-130.905 158.526l89.059 68.34c16.181 12.415 19.228 35.59 6.817 51.765-12.415 16.175-35.59 19.228-51.765 6.817l-106.297-81.567c-0.024 0.015-0.050 0.030-0.074 0.044l-63.121-48.438c0.024-0.015 0.050-0.030 0.078-0.044l-78.692-60.38c-0.020 0.015-0.039 0.035-0.059 0.054l-59.716-45.824c0.020-0.015 0.039-0.035 0.063-0.050l-241.796-185.541c-0.012 0.024-0.022 0.050-0.033 0.074l-59.725-45.828c0.013-0.024 0.025-0.047 0.038-0.072l-98.874-75.871c-0.022 0.017-0.044 0.033-0.065 0.051l-60.219-46.209c0.021-0.017 0.042-0.035 0.063-0.053l-88.928-68.239c-16.176-12.413-19.227-35.589-6.814-51.764s35.589-19.228 51.764-6.814zM275.239 283.689l78.752 60.43c41.278-38.893 96.902-62.729 158.095-62.729 127.361 0 230.602 103.253 230.602 230.616 0 39.543-9.953 76.762-27.487 109.285l98.806 75.817c51.441-40.311 94.622-90.693 126.589-148.194 12.759-22.949 12.759-50.87 0-73.819-83.698-150.555-244.292-252.294-428.592-252.294-85.859 0-166.572 22.079-236.763 60.887zM655.474 575.463c8.6-19.4 13.375-40.872 13.375-63.457 0-86.588-70.186-156.777-156.763-156.777-37.258 0-71.48 13-98.383 34.713l241.771 185.521zM18.87 439.22c21.485-38.647 47.387-74.51 77.026-106.904l58.824 45.138c-27.58 29.373-51.583 62.15-71.314 97.641-12.757 22.949-12.757 50.87 0 73.819 83.697 150.556 244.291 252.295 428.596 252.295 56.058 0 109.921-9.412 160.097-26.749l68.296 52.406c-69.812 30.973-147.091 48.182-228.392 48.182-212.184 0-396.938-117.221-493.133-290.259-25.159-45.258-25.159-100.312 0-145.57zM281.486 512.005c0-11.977 0.913-23.741 2.673-35.226l72.479 55.615c9.994 76.955 75.785 136.39 155.447 136.39 6.965 0 13.827-0.453 20.551-1.334l72.494 55.63c-28.458 12.563-59.937 19.543-93.047 19.543-127.356 0-230.599-103.256-230.599-230.617z"></path>
</svg>
