<svg width="8" height="8" viewBox="0 0 8 8" fill="none" xmlns="http://www.w3.org/2000/svg">
<path d="M3.10326 0.816986C3.47008 0.07374 4.52992 0.07374 4.89674 0.816986L5.23679 1.50602C5.38245 1.80116 5.66402 2.00573 5.98973 2.05306L6.75012 2.16355C7.57034 2.28273 7.89785 3.29071 7.30433 3.86924L6.75411 4.40558C6.51842 4.63531 6.41088 4.96631 6.46651 5.29071L6.5964 6.04802C6.73651 6.86493 5.87908 7.48789 5.14545 7.1022L4.46534 6.74464C4.17402 6.59149 3.82598 6.59149 3.53466 6.74464L2.85455 7.1022C2.12092 7.48789 1.26349 6.86493 1.4036 6.04802L1.53349 5.29071C1.58912 4.96631 1.48158 4.63531 1.24589 4.40558L0.695667 3.86924C0.10215 3.29071 0.42966 2.28273 1.24988 2.16355L2.01027 2.05306C2.33598 2.00573 2.61755 1.80116 2.76321 1.50602L3.10326 0.816986Z" fill="#070234"/>
</svg>
