<svg width="10" height="9" viewBox="0 0 10 9" fill="none" xmlns="http://www.w3.org/2000/svg">
<path d="M4.55163 0.908493C4.73504 0.53687 5.26496 0.53687 5.44837 0.908493L6.35313 2.74174C6.42596 2.88931 6.56674 2.99159 6.7296 3.01526L8.7527 3.30923C9.16281 3.36882 9.32657 3.87281 9.02981 4.16208L7.56588 5.58906C7.44803 5.70393 7.39426 5.86943 7.42208 6.03162L7.76766 8.04655C7.83772 8.45501 7.409 8.76649 7.04219 8.57364L5.23267 7.62232C5.08701 7.54574 4.91299 7.54574 4.76733 7.62232L2.95781 8.57364C2.591 8.76649 2.16228 8.45501 2.23234 8.04655L2.57792 6.03162C2.60574 5.86943 2.55197 5.70393 2.43412 5.58906L0.970192 4.16208C0.673434 3.87281 0.837189 3.36882 1.2473 3.30923L3.2704 3.01526C3.43326 2.99159 3.57404 2.88931 3.64687 2.74174L4.55163 0.908493Z" fill="#070234"/>
</svg>
