<svg width="130" height="130" viewBox="0 0 130 130" fill="none" xmlns="http://www.w3.org/2000/svg">
<g opacity="0.3">
<path d="M28.5101 28.5101C28.1195 28.1196 27.4856 28.1189 27.1026 28.5168C19.6405 36.268 14.7288 46.1281 13.0432 56.7707C11.3575 67.4134 12.9819 78.3087 17.6835 87.9865C17.9249 88.4832 18.528 88.6785 19.02 88.4278L21.9251 86.9476C22.4172 86.6968 22.6118 86.0951 22.3715 85.5978C18.1737 76.9103 16.727 67.1391 18.2388 57.5937C19.7507 48.0482 24.1461 39.2023 30.823 32.2372C31.2052 31.8385 31.2061 31.2061 30.8155 30.8156L28.5101 28.5101Z" fill="#FFC700"/>
<path d="M30.4698 103.349C30.1003 103.76 30.1328 104.393 30.5502 104.755C35.5143 109.056 41.2427 112.392 47.4402 114.587C53.952 116.893 60.8543 117.894 67.753 117.532C74.6516 117.171 81.4115 115.454 87.6466 112.48C93.5808 109.649 98.929 105.733 103.416 100.936C103.794 100.533 103.76 99.8995 103.349 99.5299L100.926 97.3483C100.516 96.9787 99.8844 97.0127 99.5063 97.4152C95.4818 101.699 90.6926 105.199 85.382 107.732C79.7703 110.408 73.6864 111.954 67.4777 112.279C61.2689 112.604 55.0568 111.704 49.1961 109.628C43.6498 107.664 38.521 104.685 34.0708 100.845C33.6526 100.484 33.021 100.516 32.6515 100.926L30.4698 103.349Z" fill="#FFC700"/>
<path d="M114.079 80.9465C114.604 81.1172 115.169 80.8299 115.33 80.3015C118.133 71.0823 118.351 61.2633 115.952 51.9177C113.469 42.249 108.287 33.4863 101.01 26.6529C93.7333 19.8196 84.6624 15.1978 74.8569 13.3273C65.3791 11.5193 55.5932 12.354 46.5682 15.7303C46.0509 15.9238 45.7997 16.5058 46.003 17.0193L47.2033 20.0508C47.4066 20.5643 47.9874 20.8147 48.5051 20.6223C56.6016 17.6128 65.374 16.8736 73.8712 18.4945C82.6962 20.178 90.8599 24.3376 97.409 30.4876C103.958 36.6376 108.622 44.5241 110.856 53.2259C113.008 61.6046 112.821 70.4061 110.326 78.6756C110.166 79.2044 110.452 79.7683 110.978 79.939L114.079 80.9465Z" fill="#FFC700"/>
</g>
<g opacity="0.3">
<path d="M1.64192 70.543C1.09174 70.5911 0.683945 71.0763 0.74059 71.6257C1.68091 80.7454 4.55218 89.5646 9.16775 97.495C13.9511 105.714 20.4898 112.775 28.3172 118.175C36.1446 123.574 45.0675 127.179 54.449 128.732C63.5015 130.231 72.7656 129.783 81.6249 127.424C82.1586 127.282 82.4673 126.728 82.3169 126.197L81.4543 123.149C81.304 122.617 80.7514 122.309 80.2175 122.451C72.0904 124.603 63.5951 125.008 55.2931 123.634C46.6621 122.205 38.453 118.888 31.2518 113.921C24.0506 108.953 18.035 102.456 13.6343 94.8954C9.40142 87.6225 6.76315 79.5371 5.8896 71.1752C5.83221 70.6259 5.34805 70.2188 4.79786 70.2669L1.64192 70.543Z" fill="#00FFE0"/>
<path d="M96.7999 120.079C97.076 120.557 97.6881 120.722 98.1621 120.438C106.03 115.732 112.809 109.403 118.046 101.868C123.473 94.0595 127.109 85.1492 128.695 75.7732C130.281 66.3971 129.777 56.7866 127.22 47.6277C124.753 38.79 120.432 30.5831 114.549 23.551C114.195 23.1274 113.563 23.0815 113.145 23.4424L110.747 25.5124C110.329 25.8733 110.283 26.5042 110.637 26.9283C116.022 33.3842 119.98 40.9125 122.243 49.0175C124.595 57.4437 125.059 66.2853 123.6 74.9113C122.141 83.5373 118.795 91.7347 113.802 98.9185C109 105.828 102.787 111.637 95.5777 115.962C95.1041 116.246 94.9398 116.857 95.2159 117.336L96.7999 120.079Z" fill="#00FFE0"/>
<path d="M105.881 16.2795C106.236 15.8564 106.181 15.225 105.753 14.8766C98.6394 9.09286 90.373 4.88702 81.5017 2.54312C72.308 0.114027 62.6914 -0.25541 53.3384 1.46118C43.9854 3.17777 35.1267 6.93805 27.3948 12.4736C19.934 17.815 13.6998 24.6822 9.10376 32.615C8.8269 33.0929 8.99997 33.7026 9.48207 33.972L12.2475 35.5175C12.7296 35.787 13.3381 35.6141 13.6156 35.1366C17.8401 27.8676 23.561 21.5742 30.4032 16.6757C37.5166 11.583 45.6666 8.12354 54.2713 6.54428C62.8761 4.96501 71.7233 5.3049 80.1816 7.53966C88.3174 9.68923 95.9002 13.541 102.431 18.836C102.86 19.1838 103.49 19.1294 103.845 18.7063L105.881 16.2795Z" fill="#00FFE0"/>
</g>
<circle opacity="0.5" cx="64.9999" cy="64.9999" r="52.6044" fill="url(#paint0_radial_2002_681)"/>
<defs>
<radialGradient id="paint0_radial_2002_681" cx="0" cy="0" r="1" gradientUnits="userSpaceOnUse" gradientTransform="translate(64.9999 64.9999) rotate(90) scale(52.6044)">
<stop stop-color="white"/>
<stop offset="1" stop-color="white" stop-opacity="0"/>
</radialGradient>
</defs>
</svg>
